<?xml version="1.0" encoding="utf-8"?>
<svg xmlns="http://www.w3.org/2000/svg" xmlns:xlink="http://www.w3.org/1999/xlink" width="600" height="400" viewBox="0 0 2400 1600">
<defs>
  <clipPath id="clip650">
    <rect x="0" y="0" width="2400" height="1600"/>
  </clipPath>
</defs>
<path clip-path="url(#clip650)" d="
M0 1600 L2400 1600 L2400 0 L0 0  Z
  " fill="#ffffff" fill-rule="evenodd" fill-opacity="1"/>
<defs>
  <clipPath id="clip651">
    <rect x="480" y="0" width="1681" height="1600"/>
  </clipPath>
</defs>
<path clip-path="url(#clip650)" d="
M86.9921 1521.01 L2352.76 1521.01 L2352.76 47.2441 L86.9921 47.2441  Z
  " fill="#ffffff" fill-rule="evenodd" fill-opacity="1"/>
<defs>
  <clipPath id="clip652">
    <rect x="86" y="47" width="2267" height="1475"/>
  </clipPath>
</defs>
<polyline clip-path="url(#clip652)" style="stroke:#000000; stroke-width:2; stroke-opacity:0.1; fill:none" points="
  499.688,1521.01 499.688,47.2441 
  "/>
<polyline clip-path="url(#clip652)" style="stroke:#000000; stroke-width:2; stroke-opacity:0.1; fill:none" points="
  1219.87,1521.01 1219.87,47.2441 
  "/>
<polyline clip-path="url(#clip652)" style="stroke:#000000; stroke-width:2; stroke-opacity:0.1; fill:none" points="
  1940.06,1521.01 1940.06,47.2441 
  "/>
<polyline clip-path="url(#clip650)" style="stroke:#000000; stroke-width:4; stroke-opacity:1; fill:none" points="
  86.9921,1521.01 2352.76,1521.01 
  "/>
<polyline clip-path="url(#clip650)" style="stroke:#000000; stroke-width:4; stroke-opacity:1; fill:none" points="
  499.688,1521.01 499.688,1503.32 
  "/>
<polyline clip-path="url(#clip650)" style="stroke:#000000; stroke-width:4; stroke-opacity:1; fill:none" points="
  1219.87,1521.01 1219.87,1503.32 
  "/>
<polyline clip-path="url(#clip650)" style="stroke:#000000; stroke-width:4; stroke-opacity:1; fill:none" points="
  1940.06,1521.01 1940.06,1503.32 
  "/>
<path clip-path="url(#clip650)" d="M 0 0 M481.702 1550.2 Q478.091 1550.2 476.262 1553.76 Q474.456 1557.31 474.456 1564.43 Q474.456 1571.54 476.262 1575.11 Q478.091 1578.65 481.702 1578.65 Q485.336 1578.65 487.141 1575.11 Q488.97 1571.54 488.97 1564.43 Q488.97 1557.31 487.141 1553.76 Q485.336 1550.2 481.702 1550.2 M481.702 1546.49 Q487.512 1546.49 490.567 1551.1 Q493.646 1555.68 493.646 1564.43 Q493.646 1573.16 490.567 1577.77 Q487.512 1582.35 481.702 1582.35 Q475.892 1582.35 472.813 1577.77 Q469.757 1573.16 469.757 1564.43 Q469.757 1555.68 472.813 1551.1 Q475.892 1546.49 481.702 1546.49 Z" fill="#000000" fill-rule="evenodd" fill-opacity="1" /><path clip-path="url(#clip650)" d="M 0 0 M498.715 1575.8 L503.6 1575.8 L503.6 1581.68 L498.715 1581.68 L498.715 1575.8 Z" fill="#000000" fill-rule="evenodd" fill-opacity="1" /><path clip-path="url(#clip650)" d="M 0 0 M508.715 1547.12 L527.072 1547.12 L527.072 1551.06 L512.998 1551.06 L512.998 1559.53 Q514.016 1559.18 515.035 1559.02 Q516.053 1558.83 517.072 1558.83 Q522.859 1558.83 526.238 1562 Q529.618 1565.18 529.618 1570.59 Q529.618 1576.17 526.146 1579.27 Q522.674 1582.35 516.354 1582.35 Q514.178 1582.35 511.91 1581.98 Q509.664 1581.61 507.257 1580.87 L507.257 1576.17 Q509.34 1577.3 511.563 1577.86 Q513.785 1578.42 516.262 1578.42 Q520.266 1578.42 522.604 1576.31 Q524.942 1574.2 524.942 1570.59 Q524.942 1566.98 522.604 1564.87 Q520.266 1562.77 516.262 1562.77 Q514.387 1562.77 512.512 1563.18 Q510.66 1563.6 508.715 1564.48 L508.715 1547.12 Z" fill="#000000" fill-rule="evenodd" fill-opacity="1" /><path clip-path="url(#clip650)" d="M 0 0 M1165.34 1560.73 Q1166.93 1557.86 1169.16 1556.49 Q1171.38 1555.13 1174.39 1555.13 Q1178.44 1555.13 1180.64 1557.98 Q1182.84 1560.8 1182.84 1566.03 L1182.84 1581.68 L1178.55 1581.68 L1178.55 1566.17 Q1178.55 1562.44 1177.24 1560.64 Q1175.92 1558.83 1173.21 1558.83 Q1169.9 1558.83 1167.98 1561.03 Q1166.05 1563.23 1166.05 1567.03 L1166.05 1581.68 L1161.77 1581.68 L1161.77 1566.17 Q1161.77 1562.42 1160.45 1560.64 Q1159.13 1558.83 1156.38 1558.83 Q1153.12 1558.83 1151.19 1561.05 Q1149.27 1563.25 1149.27 1567.03 L1149.27 1581.68 L1144.99 1581.68 L1144.99 1555.75 L1149.27 1555.75 L1149.27 1559.78 Q1150.73 1557.4 1152.77 1556.26 Q1154.8 1555.13 1157.61 1555.13 Q1160.43 1555.13 1162.4 1556.56 Q1164.39 1558 1165.34 1560.73 Z" fill="#000000" fill-rule="evenodd" fill-opacity="1" /><path clip-path="url(#clip650)" d="M 0 0 M1209.48 1567.65 L1209.48 1569.74 L1189.9 1569.74 Q1190.18 1574.13 1192.54 1576.45 Q1194.92 1578.74 1199.16 1578.74 Q1201.61 1578.74 1203.9 1578.14 Q1206.22 1577.54 1208.49 1576.33 L1208.49 1580.36 Q1206.19 1581.33 1203.79 1581.84 Q1201.38 1582.35 1198.9 1582.35 Q1192.7 1582.35 1189.06 1578.74 Q1185.45 1575.13 1185.45 1568.97 Q1185.45 1562.61 1188.88 1558.88 Q1192.33 1555.13 1198.16 1555.13 Q1203.39 1555.13 1206.43 1558.51 Q1209.48 1561.87 1209.48 1567.65 M1205.22 1566.4 Q1205.18 1562.91 1203.25 1560.82 Q1201.36 1558.74 1198.21 1558.74 Q1194.64 1558.74 1192.49 1560.75 Q1190.36 1562.77 1190.04 1566.43 L1205.22 1566.4 Z" fill="#000000" fill-rule="evenodd" fill-opacity="1" /><path clip-path="url(#clip650)" d="M 0 0 M1231.01 1559.69 L1231.01 1545.66 L1235.27 1545.66 L1235.27 1581.68 L1231.01 1581.68 L1231.01 1577.79 Q1229.67 1580.11 1227.61 1581.24 Q1225.57 1582.35 1222.7 1582.35 Q1218 1582.35 1215.04 1578.6 Q1212.1 1574.85 1212.1 1568.74 Q1212.1 1562.63 1215.04 1558.88 Q1218 1555.13 1222.7 1555.13 Q1225.57 1555.13 1227.61 1556.26 Q1229.67 1557.37 1231.01 1559.69 M1216.49 1568.74 Q1216.49 1573.44 1218.42 1576.12 Q1220.36 1578.79 1223.74 1578.79 Q1227.12 1578.79 1229.06 1576.12 Q1231.01 1573.44 1231.01 1568.74 Q1231.01 1564.04 1229.06 1561.38 Q1227.12 1558.69 1223.74 1558.69 Q1220.36 1558.69 1218.42 1561.38 Q1216.49 1564.04 1216.49 1568.74 Z" fill="#000000" fill-rule="evenodd" fill-opacity="1" /><path clip-path="url(#clip650)" d="M 0 0 M1239.74 1555.75 L1243.99 1555.75 L1243.99 1581.68 L1239.74 1581.68 L1239.74 1555.75 M1239.74 1545.66 L1243.99 1545.66 L1243.99 1551.06 L1239.74 1551.06 L1239.74 1545.66 Z" fill="#000000" fill-rule="evenodd" fill-opacity="1" /><path clip-path="url(#clip650)" d="M 0 0 M1260.24 1568.65 Q1255.08 1568.65 1253.09 1569.83 Q1251.1 1571.01 1251.1 1573.86 Q1251.1 1576.12 1252.58 1577.47 Q1254.09 1578.79 1256.66 1578.79 Q1260.2 1578.79 1262.33 1576.29 Q1264.48 1573.76 1264.48 1569.6 L1264.48 1568.65 L1260.24 1568.65 M1268.74 1566.89 L1268.74 1581.68 L1264.48 1581.68 L1264.48 1577.74 Q1263.02 1580.11 1260.85 1581.24 Q1258.67 1582.35 1255.52 1582.35 Q1251.54 1582.35 1249.18 1580.13 Q1246.84 1577.88 1246.84 1574.13 Q1246.84 1569.76 1249.76 1567.54 Q1252.7 1565.31 1258.51 1565.31 L1264.48 1565.31 L1264.48 1564.9 Q1264.48 1561.96 1262.54 1560.36 Q1260.61 1558.74 1257.12 1558.74 Q1254.9 1558.74 1252.79 1559.27 Q1250.68 1559.8 1248.74 1560.87 L1248.74 1556.93 Q1251.08 1556.03 1253.28 1555.59 Q1255.48 1555.13 1257.56 1555.13 Q1263.18 1555.13 1265.96 1558.05 Q1268.74 1560.96 1268.74 1566.89 Z" fill="#000000" fill-rule="evenodd" fill-opacity="1" /><path clip-path="url(#clip650)" d="M 0 0 M1294.76 1566.03 L1294.76 1581.68 L1290.5 1581.68 L1290.5 1566.17 Q1290.5 1562.49 1289.06 1560.66 Q1287.63 1558.83 1284.76 1558.83 Q1281.31 1558.83 1279.32 1561.03 Q1277.33 1563.23 1277.33 1567.03 L1277.33 1581.68 L1273.05 1581.68 L1273.05 1555.75 L1277.33 1555.75 L1277.33 1559.78 Q1278.86 1557.44 1280.92 1556.29 Q1283 1555.13 1285.71 1555.13 Q1290.17 1555.13 1292.47 1557.91 Q1294.76 1560.66 1294.76 1566.03 Z" fill="#000000" fill-rule="evenodd" fill-opacity="1" /><path clip-path="url(#clip650)" d="M 0 0 M1922.36 1556.52 L1922.36 1560.55 Q1920.56 1559.62 1918.61 1559.16 Q1916.67 1558.69 1914.59 1558.69 Q1911.41 1558.69 1909.82 1559.67 Q1908.24 1560.64 1908.24 1562.58 Q1908.24 1564.06 1909.38 1564.92 Q1910.51 1565.75 1913.94 1566.52 L1915.4 1566.84 Q1919.93 1567.81 1921.83 1569.6 Q1923.75 1571.36 1923.75 1574.53 Q1923.75 1578.14 1920.88 1580.24 Q1918.03 1582.35 1913.04 1582.35 Q1910.95 1582.35 1908.68 1581.93 Q1906.44 1581.54 1903.94 1580.73 L1903.94 1576.33 Q1906.3 1577.56 1908.59 1578.18 Q1910.88 1578.79 1913.13 1578.79 Q1916.14 1578.79 1917.76 1577.77 Q1919.38 1576.73 1919.38 1574.85 Q1919.38 1573.12 1918.2 1572.19 Q1917.04 1571.26 1913.08 1570.41 L1911.6 1570.06 Q1907.64 1569.23 1905.88 1567.51 Q1904.12 1565.78 1904.12 1562.77 Q1904.12 1559.11 1906.72 1557.12 Q1909.31 1555.13 1914.08 1555.13 Q1916.44 1555.13 1918.52 1555.48 Q1920.6 1555.82 1922.36 1556.52 Z" fill="#000000" fill-rule="evenodd" fill-opacity="1" /><path clip-path="url(#clip650)" d="M 0 0 M1925.16 1555.75 L1929.68 1555.75 L1937.78 1577.51 L1945.88 1555.75 L1950.4 1555.75 L1940.67 1581.68 L1934.89 1581.68 L1925.16 1555.75 Z" fill="#000000" fill-rule="evenodd" fill-opacity="1" /><path clip-path="url(#clip650)" d="M 0 0 M1971.92 1559.69 L1971.92 1545.66 L1976.18 1545.66 L1976.18 1581.68 L1971.92 1581.68 L1971.92 1577.79 Q1970.58 1580.11 1968.52 1581.24 Q1966.48 1582.35 1963.61 1582.35 Q1958.91 1582.35 1955.95 1578.6 Q1953.01 1574.85 1953.01 1568.74 Q1953.01 1562.63 1955.95 1558.88 Q1958.91 1555.13 1963.61 1555.13 Q1966.48 1555.13 1968.52 1556.26 Q1970.58 1557.37 1971.92 1559.69 M1957.41 1568.74 Q1957.41 1573.44 1959.33 1576.12 Q1961.28 1578.79 1964.66 1578.79 Q1968.03 1578.79 1969.98 1576.12 Q1971.92 1573.44 1971.92 1568.74 Q1971.92 1564.04 1969.98 1561.38 Q1968.03 1558.69 1964.66 1558.69 Q1961.28 1558.69 1959.33 1561.38 Q1957.41 1564.04 1957.41 1568.74 Z" fill="#000000" fill-rule="evenodd" fill-opacity="1" /><polyline clip-path="url(#clip652)" style="stroke:#000000; stroke-width:2; stroke-opacity:0.1; fill:none" points="
  86.9921,1479.3 2352.76,1479.3 
  "/>
<polyline clip-path="url(#clip652)" style="stroke:#000000; stroke-width:2; stroke-opacity:0.1; fill:none" points="
  86.9921,1160.71 2352.76,1160.71 
  "/>
<polyline clip-path="url(#clip652)" style="stroke:#000000; stroke-width:2; stroke-opacity:0.1; fill:none" points="
  86.9921,842.114 2352.76,842.114 
  "/>
<polyline clip-path="url(#clip652)" style="stroke:#000000; stroke-width:2; stroke-opacity:0.1; fill:none" points="
  86.9921,523.523 2352.76,523.523 
  "/>
<polyline clip-path="url(#clip652)" style="stroke:#000000; stroke-width:2; stroke-opacity:0.1; fill:none" points="
  86.9921,204.931 2352.76,204.931 
  "/>
<polyline clip-path="url(#clip650)" style="stroke:#000000; stroke-width:4; stroke-opacity:1; fill:none" points="
  86.9921,1521.01 86.9921,47.2441 
  "/>
<polyline clip-path="url(#clip650)" style="stroke:#000000; stroke-width:4; stroke-opacity:1; fill:none" points="
  86.9921,1479.3 114.181,1479.3 
  "/>
<polyline clip-path="url(#clip650)" style="stroke:#000000; stroke-width:4; stroke-opacity:1; fill:none" points="
  86.9921,1160.71 114.181,1160.71 
  "/>
<polyline clip-path="url(#clip650)" style="stroke:#000000; stroke-width:4; stroke-opacity:1; fill:none" points="
  86.9921,842.114 114.181,842.114 
  "/>
<polyline clip-path="url(#clip650)" style="stroke:#000000; stroke-width:4; stroke-opacity:1; fill:none" points="
  86.9921,523.523 114.181,523.523 
  "/>
<polyline clip-path="url(#clip650)" style="stroke:#000000; stroke-width:4; stroke-opacity:1; fill:none" points="
  86.9921,204.931 114.181,204.931 
  "/>
<path clip-path="url(#clip650)" d="M 0 0 M-24.9334 1465.1 Q-28.5445 1465.1 -30.3732 1468.66 Q-32.1787 1472.2 -32.1787 1479.33 Q-32.1787 1486.44 -30.3732 1490 Q-28.5445 1493.55 -24.9334 1493.55 Q-21.2992 1493.55 -19.4936 1490 Q-17.6649 1486.44 -17.6649 1479.33 Q-17.6649 1472.2 -19.4936 1468.66 Q-21.2992 1465.1 -24.9334 1465.1 M-24.9334 1461.39 Q-19.1232 1461.39 -16.0677 1466 Q-12.989 1470.58 -12.989 1479.33 Q-12.989 1488.06 -16.0677 1492.67 Q-19.1232 1497.25 -24.9334 1497.25 Q-30.7435 1497.25 -33.8222 1492.67 Q-36.8778 1488.06 -36.8778 1479.33 Q-36.8778 1470.58 -33.8222 1466 Q-30.7435 1461.39 -24.9334 1461.39 Z" fill="#000000" fill-rule="evenodd" fill-opacity="1" /><path clip-path="url(#clip650)" d="M 0 0 M-7.9196 1490.7 L-3.03536 1490.7 L-3.03536 1496.58 L-7.9196 1496.58 L-7.9196 1490.7 Z" fill="#000000" fill-rule="evenodd" fill-opacity="1" /><path clip-path="url(#clip650)" d="M 0 0 M12.034 1465.1 Q8.42291 1465.1 6.59422 1468.66 Q4.78867 1472.2 4.78867 1479.33 Q4.78867 1486.44 6.59422 1490 Q8.42291 1493.55 12.034 1493.55 Q15.6682 1493.55 17.4738 1490 Q19.3025 1486.44 19.3025 1479.33 Q19.3025 1472.2 17.4738 1468.66 Q15.6682 1465.1 12.034 1465.1 M12.034 1461.39 Q17.8442 1461.39 20.8997 1466 Q23.9784 1470.58 23.9784 1479.33 Q23.9784 1488.06 20.8997 1492.67 Q17.8442 1497.25 12.034 1497.25 Q6.22385 1497.25 3.14516 1492.67 Q0.089621 1488.06 0.089621 1479.33 Q0.089621 1470.58 3.14516 1466 Q6.22385 1461.39 12.034 1461.39 Z" fill="#000000" fill-rule="evenodd" fill-opacity="1" /><path clip-path="url(#clip650)" d="M 0 0 M39.0477 1465.1 Q35.4367 1465.1 33.608 1468.66 Q31.8024 1472.2 31.8024 1479.33 Q31.8024 1486.44 33.608 1490 Q35.4367 1493.55 39.0477 1493.55 Q42.682 1493.55 44.4875 1490 Q46.3162 1486.44 46.3162 1479.33 Q46.3162 1472.2 44.4875 1468.66 Q42.682 1465.1 39.0477 1465.1 M39.0477 1461.39 Q44.8579 1461.39 47.9134 1466 Q50.9921 1470.58 50.9921 1479.33 Q50.9921 1488.06 47.9134 1492.67 Q44.8579 1497.25 39.0477 1497.25 Q33.2376 1497.25 30.1589 1492.67 Q27.1034 1488.06 27.1034 1479.33 Q27.1034 1470.58 30.1589 1466 Q33.2376 1461.39 39.0477 1461.39 Z" fill="#000000" fill-rule="evenodd" fill-opacity="1" /><path clip-path="url(#clip650)" d="M 0 0 M-23.938 1146.5 Q-27.5491 1146.5 -29.3778 1150.07 Q-31.1834 1153.61 -31.1834 1160.74 Q-31.1834 1167.85 -29.3778 1171.41 Q-27.5491 1174.95 -23.938 1174.95 Q-20.3038 1174.95 -18.4982 1171.41 Q-16.6695 1167.85 -16.6695 1160.74 Q-16.6695 1153.61 -18.4982 1150.07 Q-20.3038 1146.5 -23.938 1146.5 M-23.938 1142.8 Q-18.1279 1142.8 -15.0723 1147.41 Q-11.9936 1151.99 -11.9936 1160.74 Q-11.9936 1169.47 -15.0723 1174.07 Q-18.1279 1178.66 -23.938 1178.66 Q-29.7482 1178.66 -32.8269 1174.07 Q-35.8824 1169.47 -35.8824 1160.74 Q-35.8824 1151.99 -32.8269 1147.41 Q-29.7482 1142.8 -23.938 1142.8 Z" fill="#000000" fill-rule="evenodd" fill-opacity="1" /><path clip-path="url(#clip650)" d="M 0 0 M-6.92423 1172.11 L-2.04 1172.11 L-2.04 1177.99 L-6.92423 1177.99 L-6.92423 1172.11 Z" fill="#000000" fill-rule="evenodd" fill-opacity="1" /><path clip-path="url(#clip650)" d="M 0 0 M13.0294 1146.5 Q9.41827 1146.5 7.58958 1150.07 Q5.78403 1153.61 5.78403 1160.74 Q5.78403 1167.85 7.58958 1171.41 Q9.41827 1174.95 13.0294 1174.95 Q16.6636 1174.95 18.4692 1171.41 Q20.2978 1167.85 20.2978 1160.74 Q20.2978 1153.61 18.4692 1150.07 Q16.6636 1146.5 13.0294 1146.5 M13.0294 1142.8 Q18.8395 1142.8 21.8951 1147.41 Q24.9737 1151.99 24.9737 1160.74 Q24.9737 1169.47 21.8951 1174.07 Q18.8395 1178.66 13.0294 1178.66 Q7.21921 1178.66 4.14053 1174.07 Q1.08499 1169.47 1.08499 1160.74 Q1.08499 1151.99 4.14053 1147.41 Q7.21921 1142.8 13.0294 1142.8 Z" fill="#000000" fill-rule="evenodd" fill-opacity="1" /><path clip-path="url(#clip650)" d="M 0 0 M30.0895 1143.43 L48.4458 1143.43 L48.4458 1147.36 L34.3718 1147.36 L34.3718 1155.83 Q35.3904 1155.49 36.4089 1155.32 Q37.4274 1155.14 38.4459 1155.14 Q44.2329 1155.14 47.6125 1158.31 Q50.9921 1161.48 50.9921 1166.9 Q50.9921 1172.48 47.5199 1175.58 Q44.0477 1178.66 37.7283 1178.66 Q35.5524 1178.66 33.2839 1178.29 Q31.0385 1177.92 28.6311 1177.18 L28.6311 1172.48 Q30.7145 1173.61 32.9367 1174.17 Q35.1589 1174.72 37.6357 1174.72 Q41.6403 1174.72 43.9783 1172.62 Q46.3162 1170.51 46.3162 1166.9 Q46.3162 1163.29 43.9783 1161.18 Q41.6403 1159.07 37.6357 1159.07 Q35.7607 1159.07 33.8857 1159.49 Q32.0339 1159.91 30.0895 1160.79 L30.0895 1143.43 Z" fill="#000000" fill-rule="evenodd" fill-opacity="1" /><path clip-path="url(#clip650)" d="M 0 0 M-23.7065 827.913 Q-27.3176 827.913 -29.1463 831.478 Q-30.9519 835.019 -30.9519 842.149 Q-30.9519 849.255 -29.1463 852.82 Q-27.3176 856.362 -23.7065 856.362 Q-20.0723 856.362 -18.2668 852.82 Q-16.4381 849.255 -16.4381 842.149 Q-16.4381 835.019 -18.2668 831.478 Q-20.0723 827.913 -23.7065 827.913 M-23.7065 824.209 Q-17.8964 824.209 -14.8409 828.816 Q-11.7622 833.399 -11.7622 842.149 Q-11.7622 850.876 -14.8409 855.482 Q-17.8964 860.066 -23.7065 860.066 Q-29.5167 860.066 -32.5954 855.482 Q-35.6509 850.876 -35.6509 842.149 Q-35.6509 833.399 -32.5954 828.816 Q-29.5167 824.209 -23.7065 824.209 Z" fill="#000000" fill-rule="evenodd" fill-opacity="1" /><path clip-path="url(#clip650)" d="M 0 0 M-6.69275 853.515 L-1.80852 853.515 L-1.80852 859.394 L-6.69275 859.394 L-6.69275 853.515 Z" fill="#000000" fill-rule="evenodd" fill-opacity="1" /><path clip-path="url(#clip650)" d="M 0 0 M4.07108 855.459 L11.7099 855.459 L11.7099 829.094 L3.39979 830.76 L3.39979 826.501 L11.6636 824.834 L16.3395 824.834 L16.3395 855.459 L23.9784 855.459 L23.9784 859.394 L4.07108 859.394 L4.07108 855.459 Z" fill="#000000" fill-rule="evenodd" fill-opacity="1" /><path clip-path="url(#clip650)" d="M 0 0 M39.0477 827.913 Q35.4367 827.913 33.608 831.478 Q31.8024 835.019 31.8024 842.149 Q31.8024 849.255 33.608 852.82 Q35.4367 856.362 39.0477 856.362 Q42.682 856.362 44.4875 852.82 Q46.3162 849.255 46.3162 842.149 Q46.3162 835.019 44.4875 831.478 Q42.682 827.913 39.0477 827.913 M39.0477 824.209 Q44.8579 824.209 47.9134 828.816 Q50.9921 833.399 50.9921 842.149 Q50.9921 850.876 47.9134 855.482 Q44.8579 860.066 39.0477 860.066 Q33.2376 860.066 30.1589 855.482 Q27.1034 850.876 27.1034 842.149 Q27.1034 833.399 30.1589 828.816 Q33.2376 824.209 39.0477 824.209 Z" fill="#000000" fill-rule="evenodd" fill-opacity="1" /><path clip-path="url(#clip650)" d="M 0 0 M-22.7112 509.321 Q-26.3223 509.321 -28.151 512.886 Q-29.9565 516.428 -29.9565 523.557 Q-29.9565 530.664 -28.151 534.229 Q-26.3223 537.77 -22.7112 537.77 Q-19.0769 537.77 -17.2714 534.229 Q-15.4427 530.664 -15.4427 523.557 Q-15.4427 516.428 -17.2714 512.886 Q-19.0769 509.321 -22.7112 509.321 M-22.7112 505.618 Q-16.901 505.618 -13.8455 510.224 Q-10.7668 514.807 -10.7668 523.557 Q-10.7668 532.284 -13.8455 536.891 Q-16.901 541.474 -22.7112 541.474 Q-28.5213 541.474 -31.6 536.891 Q-34.6556 532.284 -34.6556 523.557 Q-34.6556 514.807 -31.6 510.224 Q-28.5213 505.618 -22.7112 505.618 Z" fill="#000000" fill-rule="evenodd" fill-opacity="1" /><path clip-path="url(#clip650)" d="M 0 0 M-5.69739 534.923 L-0.813152 534.923 L-0.813152 540.803 L-5.69739 540.803 L-5.69739 534.923 Z" fill="#000000" fill-rule="evenodd" fill-opacity="1" /><path clip-path="url(#clip650)" d="M 0 0 M5.06645 536.868 L12.7053 536.868 L12.7053 510.502 L4.39515 512.169 L4.39515 507.909 L12.659 506.243 L17.3349 506.243 L17.3349 536.868 L24.9737 536.868 L24.9737 540.803 L5.06645 540.803 L5.06645 536.868 Z" fill="#000000" fill-rule="evenodd" fill-opacity="1" /><path clip-path="url(#clip650)" d="M 0 0 M30.0895 506.243 L48.4458 506.243 L48.4458 510.178 L34.3718 510.178 L34.3718 518.65 Q35.3904 518.303 36.4089 518.141 Q37.4274 517.956 38.4459 517.956 Q44.2329 517.956 47.6125 521.127 Q50.9921 524.298 50.9921 529.715 Q50.9921 535.293 47.5199 538.395 Q44.0477 541.474 37.7283 541.474 Q35.5524 541.474 33.2839 541.104 Q31.0385 540.733 28.6311 539.993 L28.6311 535.293 Q30.7145 536.428 32.9367 536.983 Q35.1589 537.539 37.6357 537.539 Q41.6403 537.539 43.9783 535.432 Q46.3162 533.326 46.3162 529.715 Q46.3162 526.104 43.9783 523.997 Q41.6403 521.891 37.6357 521.891 Q35.7607 521.891 33.8857 522.307 Q32.0339 522.724 30.0895 523.604 L30.0895 506.243 Z" fill="#000000" fill-rule="evenodd" fill-opacity="1" /><path clip-path="url(#clip650)" d="M 0 0 M-23.3362 190.73 Q-26.9473 190.73 -28.776 194.295 Q-30.5815 197.836 -30.5815 204.966 Q-30.5815 212.072 -28.776 215.637 Q-26.9473 219.179 -23.3362 219.179 Q-19.7019 219.179 -17.8964 215.637 Q-16.0677 212.072 -16.0677 204.966 Q-16.0677 197.836 -17.8964 194.295 Q-19.7019 190.73 -23.3362 190.73 M-23.3362 187.026 Q-17.526 187.026 -14.4705 191.633 Q-11.3918 196.216 -11.3918 204.966 Q-11.3918 213.693 -14.4705 218.299 Q-17.526 222.882 -23.3362 222.882 Q-29.1463 222.882 -32.225 218.299 Q-35.2806 213.693 -35.2806 204.966 Q-35.2806 196.216 -32.225 191.633 Q-29.1463 187.026 -23.3362 187.026 Z" fill="#000000" fill-rule="evenodd" fill-opacity="1" /><path clip-path="url(#clip650)" d="M 0 0 M-6.32238 216.331 L-1.43815 216.331 L-1.43815 222.211 L-6.32238 222.211 L-6.32238 216.331 Z" fill="#000000" fill-rule="evenodd" fill-opacity="1" /><path clip-path="url(#clip650)" d="M 0 0 M7.65902 218.276 L23.9784 218.276 L23.9784 222.211 L2.03405 222.211 L2.03405 218.276 Q4.69608 215.521 9.27939 210.892 Q13.8858 206.239 15.0664 204.896 Q17.3118 202.373 18.1914 200.637 Q19.0941 198.878 19.0941 197.188 Q19.0941 194.433 17.1497 192.697 Q15.2284 190.961 12.1266 190.961 Q9.92753 190.961 7.47384 191.725 Q5.0433 192.489 2.26554 194.04 L2.26554 189.318 Q5.08959 188.183 7.54328 187.605 Q9.99698 187.026 12.034 187.026 Q17.4043 187.026 20.5988 189.711 Q23.7932 192.396 23.7932 196.887 Q23.7932 199.017 22.983 200.938 Q22.196 202.836 20.0895 205.429 Q19.5108 206.1 16.409 209.318 Q13.3071 212.512 7.65902 218.276 Z" fill="#000000" fill-rule="evenodd" fill-opacity="1" /><path clip-path="url(#clip650)" d="M 0 0 M39.0477 190.73 Q35.4367 190.73 33.608 194.295 Q31.8024 197.836 31.8024 204.966 Q31.8024 212.072 33.608 215.637 Q35.4367 219.179 39.0477 219.179 Q42.682 219.179 44.4875 215.637 Q46.3162 212.072 46.3162 204.966 Q46.3162 197.836 44.4875 194.295 Q42.682 190.73 39.0477 190.73 M39.0477 187.026 Q44.8579 187.026 47.9134 191.633 Q50.9921 196.216 50.9921 204.966 Q50.9921 213.693 47.9134 218.299 Q44.8579 222.882 39.0477 222.882 Q33.2376 222.882 30.1589 218.299 Q27.1034 213.693 27.1034 204.966 Q27.1034 196.216 30.1589 191.633 Q33.2376 187.026 39.0477 187.026 Z" fill="#000000" fill-rule="evenodd" fill-opacity="1" /><path clip-path="url(#clip652)" d="
M211.613 88.9544 L211.613 1479.3 L787.762 1479.3 L787.762 88.9544 L211.613 88.9544 L211.613 88.9544  Z
  " fill="#009af9" fill-rule="evenodd" fill-opacity="1"/>
<polyline clip-path="url(#clip652)" style="stroke:#000000; stroke-width:4; stroke-opacity:1; fill:none" points="
  211.613,88.9544 211.613,1479.3 787.762,1479.3 787.762,88.9544 211.613,88.9544 
  "/>
<path clip-path="url(#clip652)" d="
M931.799 552.089 L931.799 1479.3 L1507.95 1479.3 L1507.95 552.089 L931.799 552.089 L931.799 552.089  Z
  " fill="#009af9" fill-rule="evenodd" fill-opacity="1"/>
<polyline clip-path="url(#clip652)" style="stroke:#000000; stroke-width:4; stroke-opacity:1; fill:none" points="
  931.799,552.089 931.799,1479.3 1507.95,1479.3 1507.95,552.089 931.799,552.089 
  "/>
<path clip-path="url(#clip652)" d="
M1651.99 984.344 L1651.99 1479.3 L2228.13 1479.3 L2228.13 984.344 L1651.99 984.344 L1651.99 984.344  Z
  " fill="#009af9" fill-rule="evenodd" fill-opacity="1"/>
<polyline clip-path="url(#clip652)" style="stroke:#000000; stroke-width:4; stroke-opacity:1; fill:none" points="
  1651.99,984.344 1651.99,1479.3 2228.13,1479.3 2228.13,984.344 1651.99,984.344 
  "/>
<path clip-path="url(#clip650)" d="
M1974.46 217.33 L2277.23 217.33 L2277.23 96.3696 L1974.46 96.3696  Z
  " fill="#ffffff" fill-rule="evenodd" fill-opacity="1"/>
<polyline clip-path="url(#clip650)" style="stroke:#000000; stroke-width:4; stroke-opacity:1; fill:none" points="
  1974.46,217.33 2277.23,217.33 2277.23,96.3696 1974.46,96.3696 1974.46,217.33 
  "/>
<path clip-path="url(#clip650)" d="
M1999.64 181.042 L2150.69 181.042 L2150.69 132.658 L1999.64 132.658 L1999.64 181.042  Z
  " fill="#009af9" fill-rule="evenodd" fill-opacity="1"/>
<polyline clip-path="url(#clip650)" style="stroke:#000000; stroke-width:4; stroke-opacity:1; fill:none" points="
  1999.64,181.042 2150.69,181.042 2150.69,132.658 1999.64,132.658 1999.64,181.042 
  "/>
<path clip-path="url(#clip650)" d="M 0 0 M2189.7 176.537 Q2187.9 181.167 2186.19 182.579 Q2184.47 183.991 2181.6 183.991 L2178.2 183.991 L2178.2 180.426 L2180.7 180.426 Q2182.46 180.426 2183.43 179.592 Q2184.4 178.759 2185.58 175.657 L2186.35 173.713 L2175.86 148.204 L2180.38 148.204 L2188.48 168.481 L2196.58 148.204 L2201.09 148.204 L2189.7 176.537 Z" fill="#000000" fill-rule="evenodd" fill-opacity="1" /><path clip-path="url(#clip650)" d="M 0 0 M2206.97 170.194 L2214.61 170.194 L2214.61 143.829 L2206.3 145.495 L2206.3 141.236 L2214.57 139.57 L2219.24 139.57 L2219.24 170.194 L2226.88 170.194 L2226.88 174.13 L2206.97 174.13 L2206.97 170.194 Z" fill="#000000" fill-rule="evenodd" fill-opacity="1" /></svg>
